<?xml version="1.0" encoding="UTF-8"?> <!-- Generator: Adobe Illustrator 23.0.3, SVG Export Plug-In . SVG Version: 6.00 Build 0) --> <svg xmlns="http://www.w3.org/2000/svg" xmlns:xlink="http://www.w3.org/1999/xlink" id="Layer_1" x="0px" y="0px" viewBox="0 0 512 512" style="enable-background:new 0 0 512 512;" xml:space="preserve"> <style type="text/css"> .st0{fill:#FFFFFF;} </style> <g> <path class="st0" d="M286.8,259c4.2,0,7.6-3.4,7.6-7.6v-29.6c0-4.2-3.4-7.6-7.6-7.6s-7.6,3.4-7.6,7.6v29.6 C279.2,255.6,282.6,259,286.8,259z"></path> <path class="st0" d="M391.9,259c4.2,0,7.6-3.4,7.6-7.6v-29.6c0-4.2-3.4-7.6-7.6-7.6s-7.6,3.4-7.6,7.6v29.6 C384.3,255.6,387.7,259,391.9,259z"></path> <path class="st0" d="M465.7,289.7c25.6-0.4,46.3-21.4,46.3-47.1c0-21.9-15-40.3-35.2-45.6c7.4-8,11.8-18.6,11.8-29.9v-3.2 c0-11.8-4.8-23-13.1-31.2c23.5-41.2,17.7-94.7-17.4-129.9c-3-3-7.8-3-10.8,0L400.2,50c-7.2-9-18.1-14.5-30.1-14.5 c-9.5,0-18.5,3.5-25.5,9.7c-15.8-15.8-37.2-24.8-59.9-24.8c-9,0-17.8,1.4-26.2,4.1c-5.5-14.2-19.3-24.3-35.4-24.3H76.4 c-4.2,0-7.6,3.4-7.6,7.6s3.4,7.6,7.6,7.6h146.9c12.5,0,22.7,10.2,22.7,22.7v232.5c0,2.3-1.6,3.2-2.3,3.5c-0.7,0.3-2.5,0.8-4.1-0.8 l-48-48.9c-1.4-1.5-3.4-2.3-5.4-2.3H37.9c-12.5,0-22.7-10.2-22.7-22.7V38.1c0-12.5,10.2-22.7,22.7-22.7h8c4.2,0,7.6-3.4,7.6-7.6 s-3.4-7.6-7.6-7.6h-8C17,0.2,0,17.2,0,38.1v161.2c0,20.9,17,37.9,37.9,37.9h126c-0.2,1.8-0.3,3.5-0.3,5.3c0,26,21.1,47.1,47.1,47.1 c0.8,0,1.5,0,2.3-0.1c4.8,27.6,18.4,52.1,37.8,70.7c-25.3,24.2-39.7,57.5-39.7,92.7v7.7l-43.9-43.5c-0.8-0.8-1.7-1.3-2.6-1.7v-10.4 c0-11.7-9.5-21.2-21.2-21.2c-11.7,0-21.2,9.5-21.2,21.2v9.9H89.7c-14.8,0-26.8,12-26.8,26.8c0,12.6,8.9,23.6,21.2,26.2l28.5,6.1 l34.8,35.1c1.4,1.4,3.4,2.2,5.4,2.2l307.1,0.3c4.2,0,7.6-3.4,7.6-7.6V453c0-4.2-3.4-7.6-7.6-7.6s-7.6,3.4-7.6,7.6v43.5h-65 l17.9-17.9c2.3-2.3,2.9-5.8,1.5-8.7l-7.6-15.9h17.6c3.6,0,6.7-2.5,7.4-6l11.6-54c6.3,10.2,10.9,21.4,13.6,33.2 c0.8,3.5,3.9,5.9,7.4,5.9c0.6,0,1.2-0.1,1.7-0.2c4.1-1,6.6-5,5.7-9.1c-5.4-23.3-17.2-44.5-34.2-61.5c-0.7-0.7-1.4-1.3-2.1-2 C447.4,341.7,460.9,317,465.7,289.7z M496.8,242.6c0,16.7-13,30.5-29.4,31.8c0.1-2.2,0.2-4.4,0.2-6.7v-26.1 c3.1,0.2,6.6,1.3,8.3,5.2c1.2,2.9,4,4.6,7,4.6c1,0,2-0.2,3-0.6c3.9-1.7,5.6-6.2,3.9-10c-4.7-10.8-14.2-14.1-22.2-14.4v-15.6 C483.9,212.2,496.8,225.9,496.8,242.6z M473.4,163.9v3.2c0,6.4-2.1,12.4-5.9,17.3c-0.1-11.5-1.7-22.9-4.8-33.8 c1.4-1.6,2.8-3.3,4.1-4.9C471,150.7,473.4,157.2,473.4,163.9z M338.8,61.4c1.5,1.9,3.8,2.9,6.2,2.8c2.4-0.1,4.6-1.3,6-3.3 c4.3-6.4,11.5-10.2,19.2-10.2c9.5,0,17.9,5.7,21.5,14.5c1,2.4,3,4.1,5.5,4.6c2.5,0.5,5.1-0.3,6.9-2.1l48.5-48.5 c30.9,36.4,29.2,91.2-5.2,125.5c-29.5,29.5-75.4,35.6-111.6,14.9c-2.7-1.5-6-1.3-8.4,0.6c-12.3,9.5-27,14.6-42.6,14.6 c-8.2,0-16.1-1.4-23.6-4.1V39.7c7.5-2.7,15.5-4.1,23.6-4.1C305.8,35.6,325.5,45,338.8,61.4z M210.7,274.5 c-17.6,0-31.9-14.3-31.9-31.9c0-1.8,0.1-3.6,0.4-5.3h3.7l28.2,28.7v1.7c0,2.3,0.1,4.5,0.2,6.8C211.1,274.5,210.9,274.5,210.7,274.5 z M227.3,282.5l1.3,1.4c3.7,3.7,8.5,5.7,13.5,5.7c2.4,0,4.9-0.5,7.2-1.4c7.2-2.9,11.8-9.8,11.8-17.6v-84c7.6,2.2,15.5,3.4,23.6,3.4 c17.3,0,33.7-5.1,47.8-14.8c38.2,19.6,84.4,14.5,117.4-12.4c1.5,7.5,2.3,15.1,2.3,22.8v82.1c0,54.1-38.5,100.8-91.5,111 c-7,1.4-14.3,2-21.5,2C282.1,380.7,234.6,337.8,227.3,282.5z M339.3,433.1l-12-15.3l12-13.1l12,13.1L339.3,433.1z M309.4,414.7 l-12.9-26.2c9.8,3.5,20,5.8,30.7,6.8L309.4,414.7z M316.9,429.1l12.8,16.3l-3.2,4l-9.9-20.1L316.9,429.1z M339.3,457.8l5.3,6.8 l-5.3,10.9l-5.3-10.9L339.3,457.8z M352.2,449.4l-3.2-4l12.8-16.3l0.3,0.3L352.2,449.4z M369.3,414.7l-17.8-19.4 c4.1-0.4,8.2-1,12.2-1.7c6.3-1.2,12.5-2.9,18.5-5L369.3,414.7z M274.5,378.2l58,117.8c0.1,0.2,0.2,0.4,0.3,0.5h-20L288,471.7 l10.5-21.9c1.1-2.4,1-5.1-0.4-7.4c-1.4-2.2-3.8-3.6-6.4-3.6h-23.6l-13.2-61c2.4-2.7,4.9-5.2,7.5-7.7 C266.3,373.1,270.3,375.8,274.5,378.2z M226.3,453c0-21.1,5.8-41.4,16.5-58.9l11.6,54c0.8,3.5,3.9,6,7.4,6h17.6L272,470 c-1.4,2.9-0.8,6.4,1.5,8.7l17.9,17.9h-44.1l-20.9-20.7L226.3,453L226.3,453z M137.5,405.2c0-3.3,2.7-5.9,5.9-5.9 c3.3,0,5.9,2.7,5.9,5.9v9.9h-11.9L137.5,405.2L137.5,405.2z M78.2,441.9c0-6.4,5.2-11.6,11.6-11.6h40.2h13.3L114,458.9l-26.7-5.7 C82,452.1,78.2,447.3,78.2,441.9z M127.2,467.3l34.6-33.9l63.4,62.9H156L127.2,467.3z M419.3,373.1c1.5,1.5,3,3.1,4.5,4.8l-13.2,61 H387c-2.6,0-5.1,1.3-6.4,3.6c-1.4,2.2-1.5,5-0.4,7.4l10.5,21.9l-24.8,24.8h-20c0.1-0.2,0.2-0.4,0.3-0.5l58-117.7 c4.2-2.5,8.2-5.2,12.1-8.1C417.3,371.2,418.3,372.2,419.3,373.1z"></path> <path class="st0" d="M339.3,327c15.7,0,28.4-12.8,28.4-28.4c0-14.2-9.6-21.3-28.4-21.3s-28.4,7.2-28.4,21.3 C310.9,314.2,323.7,327,339.3,327z M339.3,292.4c13.2,0,13.2,3.1,13.2,6.1c0,7.3-5.9,13.2-13.2,13.2c-7.3,0-13.2-5.9-13.2-13.2 C326.1,295.5,326.1,292.4,339.3,292.4z"></path> <path class="st0" d="M211.2,51.5H49.9c-4.2,0-7.6,3.4-7.6,7.6s3.4,7.6,7.6,7.6h161.3c4.2,0,7.6-3.4,7.6-7.6S215.4,51.5,211.2,51.5z "></path> <path class="st0" d="M211.2,89.5H49.9c-4.2,0-7.6,3.4-7.6,7.6s3.4,7.6,7.6,7.6h161.3c4.2,0,7.6-3.4,7.6-7.6S215.4,89.5,211.2,89.5z "></path> <path class="st0" d="M211.2,127.6h-23.3c-4.2,0-7.6,3.4-7.6,7.6s3.4,7.6,7.6,7.6h23.3c4.2,0,7.6-3.4,7.6-7.6 S215.4,127.6,211.2,127.6z"></path> <path class="st0" d="M49.9,142.8h107.5c4.2,0,7.6-3.4,7.6-7.6s-3.4-7.6-7.6-7.6H49.9c-4.2,0-7.6,3.4-7.6,7.6S45.7,142.8,49.9,142.8 z"></path> <path class="st0" d="M49.9,180.8h161.3c4.2,0,7.6-3.4,7.6-7.6s-3.4-7.6-7.6-7.6H49.9c-4.2,0-7.6,3.4-7.6,7.6S45.7,180.8,49.9,180.8 z"></path> </g> </svg> 